<?xml version="1.0" encoding="UTF-8" standalone="no"?>
<!DOCTYPE svg PUBLIC "-//W3C//DTD SVG 1.1//EN" "http://www.w3.org/Graphics/SVG/1.1/DTD/svg11.dtd">
<svg viewBox="0 0 64 64" version="1.1" xmlns="http://www.w3.org/2000/svg" xmlns:xlink="http://www.w3.org/1999/xlink" xml:space="preserve" xmlns:serif="http://www.serif.com/" style="fill-rule:evenodd;clip-rule:evenodd;stroke-linejoin:round;stroke-miterlimit:1.41421;">
    <path d="M44.018,15.398C44.33,10.158 48.683,6 54,6C59.519,6 64,10.481 64,16C64,21.519 59.519,26 54,26C50.527,26 47.465,24.226 45.672,21.535C41.649,24.075 38.343,28.133 35.754,31.843C31.302,38.254 26.928,45.195 19.976,48.702C19.615,53.894 15.283,58 10,58C4.481,58 0,53.519 0,48C0,42.481 4.481,38 10,38C13.516,38 16.611,39.819 18.394,42.566C22.42,40.019 25.664,35.858 28.246,32.157C32.649,25.817 37.18,18.934 44.018,15.398ZM10,44C12.208,44 14,45.792 14,48C14,50.208 12.208,52 10,52C7.792,52 6,50.208 6,48C6,45.792 7.792,44 10,44ZM54,12C56.208,12 58,13.792 58,16C58,18.208 56.208,20 54,20C51.792,20 50,18.208 50,16C50,13.792 51.792,12 54,12Z"/>
</svg>
