<svg
  xmlns="http://www.w3.org/2000/svg"
  viewBox="0 0 100 100"
>
  <path
    fill="none"
    stroke="#222"
    stroke-width="20"
    stroke-linecap="round"
    stroke-linejoin="round"
    d="
      M 50 50
      m -16 -32
      l 32 0
      l 16 16
      l 0 32
      l -16 16
      l -32 0
      l -16 -16
      l 0 -32
      l 16 -16
      z
    "
  />

  <path
    fill="#f32"
    stroke="#f32"
    stroke-width="5"
    stroke-linecap="round"
    stroke-linejoin="round"
    d="
      M 50 50
      m -16 -32
      l 32 0
      l 16 16
      l 0 32
      l -16 16
      l -32 0
      l -16 -16
      l 0 -32
      l 16 -16
      z
    "
  />

  <path
    fill="#222"
    stroke="#222"
    stroke-width="5"
    stroke-linecap="round"
    stroke-linejoin="round"
    d="
      M 50 50
      m 0 -6
      l 14 -14
      l 6 6
      l -14 14
      l 14 14
      l -6 6
      l -14 -14
      l -14 14
      l -6 -6
      l 14 -14
      l -14 -14
      l 6 -6
      l 14 14
      z
    "
  />
</svg>
