<?xml version="1.0" encoding="UTF-8" standalone="no"?>
<!DOCTYPE svg PUBLIC "-//W3C//DTD SVG 1.1//EN" "http://www.w3.org/Graphics/SVG/1.1/DTD/svg11.dtd">
<svg viewBox="0 0 720 64" version="1.1" xmlns="http://www.w3.org/2000/svg" xmlns:xlink="http://www.w3.org/1999/xlink" xml:space="preserve" xmlns:serif="http://www.serif.com/" style="fill-rule:evenodd;clip-rule:evenodd;stroke-linejoin:round;stroke-miterlimit:1.41421;">
    <g transform="matrix(1.10297,0,0,1.10297,78.1502,-38.5886)">
        <g id="a" transform="matrix(1,0,0,1,-92.3303,0)">
            <path d="M44.397,47.274C42.928,45.991 42,44.104 42,42L42,41.998C42,38.133 45.133,35 48.998,35L49.002,35C52.867,35 56,38.133 56,41.998L56,42C56,44.113 55.063,46.008 53.583,47.292L68.047,79.064C68.358,79.022 68.676,79 68.998,79L69.002,79C72.867,79 76,82.133 76,85.998L76,86C76,89.866 72.866,93 69,93L69,93C65.134,93 62,89.866 62,86L62,85.998C62,83.891 62.931,82.001 64.405,80.718L49.937,48.938C49.631,48.979 49.318,49 49,49L49,49C48.673,49 48.351,48.978 48.036,48.934L33.591,80.715C35.067,81.998 36,83.889 36,85.998L36,86C36,89.866 32.866,93 29,93L29,93C25.134,93 22,89.866 22,86L22,85.998C22,82.133 25.133,79 28.998,79L29.002,79C29.323,79 29.639,79.022 29.948,79.064L44.397,47.274ZM29,89C30.657,89 32,87.657 32,86L32,86C32,84.343 30.657,83 29,83L29,83C27.343,83 26,84.343 26,86L26,86C26,87.657 27.343,89 29,89L29,89ZM69,89C70.657,89 72,87.657 72,86L72,86C72,84.343 70.657,83 69,83L69,83C67.343,83 66,84.343 66,86L66,86C66,87.657 67.343,89 69,89L69,89ZM49,45C50.657,45 52,43.657 52,42L52,42C52,40.343 50.657,39 49,39L49,39C47.343,39 46,40.343 46,42L46,42C46,43.657 47.343,45 49,45L49,45Z" />
        </g>
        <g id="u" transform="matrix(1,0,0,1,-69.252,0)">
            <path d="M78,35L82,35L82,73C82,81.836 89.154,89 98,89C106.827,89 114,81.712 114,73L114,34.975L118,35L118,73C118,84.046 109,93 97.99,93C86.945,93 78,84.046 78,73L78,35Z" />
        </g>
        <g id="t" transform="matrix(1,0,0,1,-46.171,0)">
            <path d="M125,35L167,35L167,39.032L148,39.032L148,93L144,93L144,39.032L125,39.032L125,35Z" />
        </g>
        <g id="o" transform="matrix(1,0,0,1,-23.1034,0)">
            <path d="M228,63.986C228,56.298 224.946,48.926 219.51,43.49C214.074,38.054 206.702,35 199.014,35C199.005,35 199,35 199,35C199,35 199,35 198.999,35C191.31,34.993 183.934,38.043 178.495,43.477C173.056,48.912 170,56.285 170,63.974L170,64C170,71.691 173.055,79.068 178.494,84.506C183.932,89.945 191.309,93 199,93L199,93C206.691,93 214.068,89.945 219.506,84.506C224.945,79.068 228,71.691 228,64C228,63.992 228,63.987 228,63.987C228,63.987 228,63.987 228,63.986ZM223.977,63.986C223.977,50.198 212.8,39.022 199.013,39.022C199.004,39.022 199,39.022 199,39.022C199,39.022 199,39.022 198.999,39.022C192.377,39.016 186.024,41.642 181.34,46.323C176.655,51.003 174.023,57.354 174.023,63.976L174.023,63.999C174.023,70.623 176.655,76.976 181.339,81.66C186.023,86.343 192.375,88.975 198.999,88.975L199.001,88.975C205.625,88.975 211.977,86.343 216.661,81.66C221.345,76.976 223.977,70.623 223.977,63.999C223.977,63.991 223.977,63.987 223.977,63.987C223.977,63.987 223.977,63.987 223.977,63.986Z" />
        </g>
        <path id="m" d="M285,93L281,93L281,42.284L261.606,72.99L258.402,73.005L239,42.324L239,93L235,93L235,35L239.102,35L259.998,68.045L280.869,35L285,35C285,54.333 285,73.667 285,93Z" />
        <g id="a2" transform="matrix(1,0,0,1,20.0558,32)">
            <path d="M346.8,61L342.445,61L335.557,45L308.865,45L310.587,41L333.835,41L320.017,8.899L297.622,61L293.268,61L318.198,3L321.832,3L346.8,61Z" />
        </g>
        <g id="t2" transform="matrix(1,0,0,1,259.187,0)">
            <path d="M125,35L167,35L167,39.032L148,39.032L148,93L144,93L144,39.032L125,39.032L125,35Z" />
        </g>
        <g id="o2" transform="matrix(1,0,0,1,281.257,1.16685e-05)">
            <path d="M228,63.986C228,56.298 224.946,48.926 219.51,43.49C214.074,38.054 206.702,35 199.014,35C199.005,35 199,35 199,35C199,35 199,35 198.999,35C191.31,34.993 183.934,38.043 178.495,43.477C173.056,48.912 170,56.285 170,63.974L170,64C170,71.691 173.055,79.068 178.494,84.506C183.932,89.945 191.309,93 199,93L199,93C206.691,93 214.068,89.945 219.506,84.506C224.945,79.068 228,71.691 228,64C228,63.992 228,63.987 228,63.987C228,63.987 228,63.987 228,63.986ZM223.977,63.986C223.977,50.198 212.8,39.022 199.013,39.022C199.004,39.022 199,39.022 199,39.022C199,39.022 199,39.022 198.999,39.022C192.377,39.016 186.024,41.642 181.34,46.323C176.655,51.003 174.023,57.354 174.023,63.976L174.023,63.999C174.023,70.623 176.655,76.976 181.339,81.66C186.023,86.343 192.375,88.975 198.999,88.975L199.001,88.975C205.625,88.975 211.977,86.343 216.661,81.66C221.345,76.976 223.977,70.623 223.977,63.999C223.977,63.991 223.977,63.987 223.977,63.987C223.977,63.987 223.977,63.987 223.977,63.986Z" />
        </g>
        <g id="n" transform="matrix(1,0,0,1,92.4061,0)">
            <path d="M484.93,93L451.002,42.108L450.998,93L446.998,93L447.002,35L451.07,35L485,85.894L485,35L489,35L489,93C487.643,93 486.286,93 484.93,93Z" />
        </g>
    </g>
</svg>
