<?xml version="1.0" encoding="UTF-8" standalone="no"?>
<!DOCTYPE svg PUBLIC "-//W3C//DTD SVG 1.1//EN" "http://www.w3.org/Graphics/SVG/1.1/DTD/svg11.dtd">
<svg viewBox="0 0 64 64" version="1.1" xmlns="http://www.w3.org/2000/svg" xmlns:xlink="http://www.w3.org/1999/xlink" xml:space="preserve" xmlns:serif="http://www.serif.com/" style="fill-rule:evenodd;clip-rule:evenodd;stroke-linejoin:round;stroke-miterlimit:1.41421;">
    <g id="a" transform="matrix(1.10297,0,0,1.10297,-22.0454,-38.5886)">
        <path d="M44.397,47.274C42.928,45.991 42,44.104 42,42L42,41.998C42,38.133 45.133,35 48.998,35L49.002,35C52.867,35 56,38.133 56,41.998L56,42C56,44.113 55.063,46.008 53.583,47.292L68.047,79.064C68.358,79.022 68.676,79 68.998,79L69.002,79C72.867,79 76,82.133 76,85.998L76,86C76,89.866 72.866,93 69,93L69,93C65.134,93 62,89.866 62,86L62,85.998C62,83.891 62.931,82.001 64.405,80.718L49.937,48.938C49.631,48.979 49.318,49 49,49L49,49C48.673,49 48.351,48.978 48.036,48.934L33.591,80.715C35.067,81.998 36,83.889 36,85.998L36,86C36,89.866 32.866,93 29,93L29,93C25.134,93 22,89.866 22,86L22,85.998C22,82.133 25.133,79 28.998,79L29.002,79C29.323,79 29.639,79.022 29.948,79.064L44.397,47.274ZM29,89C30.657,89 32,87.657 32,86L32,86C32,84.343 30.657,83 29,83L29,83C27.343,83 26,84.343 26,86L26,86C26,87.657 27.343,89 29,89L29,89ZM69,89C70.657,89 72,87.657 72,86L72,86C72,84.343 70.657,83 69,83L69,83C67.343,83 66,84.343 66,86L66,86C66,87.657 67.343,89 69,89L69,89ZM49,45C50.657,45 52,43.657 52,42L52,42C52,40.343 50.657,39 49,39L49,39C47.343,39 46,40.343 46,42L46,42C46,43.657 47.343,45 49,45L49,45Z" />
    </g>
</svg>
