<?xml version="1.0" encoding="UTF-8" standalone="no"?>
<!DOCTYPE svg PUBLIC "-//W3C//DTD SVG 1.1//EN" "http://www.w3.org/Graphics/SVG/1.1/DTD/svg11.dtd">
<svg viewBox="0 0 64 64" version="1.1" xmlns="http://www.w3.org/2000/svg" xmlns:xlink="http://www.w3.org/1999/xlink" xml:space="preserve" xmlns:serif="http://www.serif.com/" style="fill-rule:evenodd;clip-rule:evenodd;stroke-linejoin:round;stroke-miterlimit:1.41421;">
    <g transform="matrix(0.587988,0,0,0.392435,-16.2979,41.4898)">
        <path d="M64,16.589C64,10.964 60.952,6.396 57.197,6.396L34.521,6.396C30.766,6.396 27.718,10.964 27.718,16.589C27.718,22.215 30.766,26.782 34.521,26.782L57.197,26.782C60.952,26.782 64,22.215 64,16.589Z"/>
    </g>
    <g transform="matrix(0.587988,0,0,0.392435,5.03542,25.4898)">
        <path d="M64,16.589C64,10.964 60.952,6.396 57.197,6.396L34.521,6.396C30.766,6.396 27.718,10.964 27.718,16.589C27.718,22.215 30.766,26.782 34.521,26.782L57.197,26.782C60.952,26.782 64,22.215 64,16.589Z"/>
    </g>
    <g transform="matrix(0.587988,0,0,0.392435,26.3688,9.48984)">
        <path d="M64,16.589C64,10.964 60.952,6.396 57.197,6.396L34.521,6.396C30.766,6.396 27.718,10.964 27.718,16.589C27.718,22.215 30.766,26.782 34.521,26.782L57.197,26.782C60.952,26.782 64,22.215 64,16.589Z"/>
    </g>
</svg>
