<svg
  xmlns="http://www.w3.org/2000/svg"
  viewBox="0 0 100 100"
>
  <path
    d="
      M 92 45
      L 92 55
      L 78 61
      L 74 68
      L 76 83
      L 66 89
      L 54 80
      L 46 80
      L 34 89
      L 24 83
      L 26 68
      L 22 61
      L 8 55
      L 8 45
      L 22 39
      L 26 32
      L 24 17
      L 34 11
      L 46 20
      L 54 20
      L 66 11
      L 76 17
      L 74 32
      L 78 39
      z

      M 50 50
      m 0 -12
      a 12 12 0 0 0 0 24
      a 12 12 0 0 0 0 -24
      z
    "
  />
</svg>
