<?xml version="1.0" encoding="UTF-8" standalone="no"?>
<!DOCTYPE svg PUBLIC "-//W3C//DTD SVG 1.1//EN" "http://www.w3.org/Graphics/SVG/1.1/DTD/svg11.dtd">
<svg width="100%" height="100%" viewBox="0 0 64 64" version="1.1" xmlns="http://www.w3.org/2000/svg" xmlns:xlink="http://www.w3.org/1999/xlink" xml:space="preserve" xmlns:serif="http://www.serif.com/" style="fill-rule:evenodd;clip-rule:evenodd;stroke-linejoin:round;stroke-miterlimit:1.41421;">
    <g transform="matrix(1.32297,0,0,0.588652,-20.6703,22.2348)">
        <rect x="27.718" y="6.396" width="36.282" height="20.386"/>
    </g>
    <g transform="matrix(0.332087,0,0,0.588652,-9.20481,22.2348)">
        <rect x="27.718" y="6.396" width="36.282" height="20.386"/>
    </g>
    <g transform="matrix(1.32297,0,0,0.588652,-20.6703,6.23477)">
        <rect x="27.718" y="6.396" width="36.282" height="20.386"/>
    </g>
    <g transform="matrix(0.332087,0,0,0.588652,-9.20481,6.23477)">
        <rect x="27.718" y="6.396" width="36.282" height="20.386"/>
    </g>
    <g transform="matrix(1.32297,0,0,0.588652,-20.6703,38.2348)">
        <rect x="27.718" y="6.396" width="36.282" height="20.386"/>
    </g>
    <g transform="matrix(0.332087,0,0,0.588652,-9.20481,38.2348)">
        <rect x="27.718" y="6.396" width="36.282" height="20.386"/>
    </g>
</svg>
