<?xml version="1.0" encoding="UTF-8" standalone="no"?>
<!DOCTYPE svg PUBLIC "-//W3C//DTD SVG 1.1//EN" "http://www.w3.org/Graphics/SVG/1.1/DTD/svg11.dtd">
<svg width="100%" height="100%" viewBox="0 0 24 24" version="1.1" xmlns="http://www.w3.org/2000/svg" xmlns:xlink="http://www.w3.org/1999/xlink" xml:space="preserve" xmlns:serif="http://www.serif.com/" style="fill-rule:evenodd;clip-rule:evenodd;stroke-linejoin:round;stroke-miterlimit:1.41421;">
    <g transform="matrix(0.833333,0,0,0.833333,2,2)">
        <path d="M0,6.249C0,6.089 0.063,5.937 0.176,5.824C1.053,4.947 4.947,1.053 5.824,0.176C5.937,0.063 6.089,0 6.249,0C7.805,0 16.195,0 17.751,0C17.911,0 18.063,0.063 18.176,0.176C19.053,1.053 22.947,4.947 23.824,5.824C23.937,5.937 24,6.089 24,6.249C24,7.805 24,16.195 24,17.751C24,17.911 23.937,18.063 23.824,18.176C22.947,19.053 19.053,22.946 18.176,23.823C18.063,23.935 17.911,23.999 17.752,23.999C16.195,23.999 7.805,24 6.249,24C6.089,24 5.937,23.937 5.824,23.824C4.947,22.947 1.053,19.053 0.176,18.176C0.063,18.063 0,17.911 0,17.751C0,16.195 0,7.805 0,6.249Z" style="fill:rgb(255,0,102);"/>
        <path d="M17.9,-2.397L18.048,-2.386L18.194,-2.368L18.34,-2.343L18.483,-2.31L18.624,-2.271L18.763,-2.225L18.9,-2.172L19.034,-2.113L19.164,-2.047L19.292,-1.975L19.416,-1.897L19.537,-1.812L19.653,-1.721L19.766,-1.624L19.852,-1.542L25.542,4.148L25.624,4.234L25.721,4.347L25.812,4.463L25.896,4.584L25.975,4.708L26.047,4.836L26.113,4.966L26.172,5.1L26.225,5.237L26.271,5.376L26.31,5.517L26.343,5.66L26.368,5.806L26.386,5.952L26.397,6.1L26.4,6.219L26.4,17.781L26.397,17.9L26.386,18.048L26.368,18.195L26.342,18.34L26.31,18.483L26.271,18.624L26.225,18.763L26.172,18.9L26.113,19.034L26.047,19.165L25.975,19.292L25.896,19.417L25.812,19.537L25.721,19.654L25.624,19.766L25.542,19.852L19.852,25.541L19.765,25.623L19.653,25.72L19.537,25.81L19.416,25.895L19.292,25.974L19.164,26.046L19.034,26.112L18.9,26.171L18.763,26.224L18.624,26.27L18.483,26.309L18.34,26.341L18.195,26.366L18.048,26.385L17.901,26.396L17.782,26.399L6.219,26.4L6.1,26.397L5.952,26.386L5.806,26.368L5.661,26.343L5.517,26.31L5.376,26.271L5.237,26.225L5.1,26.172L4.967,26.113L4.836,26.047L4.708,25.975L4.584,25.897L4.463,25.812L4.347,25.721L4.234,25.624L4.148,25.542L-1.542,19.852L-1.624,19.766L-1.721,19.653L-1.812,19.537L-1.897,19.416L-1.975,19.292L-2.047,19.164L-2.113,19.034L-2.172,18.9L-2.225,18.763L-2.271,18.624L-2.31,18.483L-2.343,18.34L-2.368,18.194L-2.386,18.048L-2.397,17.9L-2.4,17.781L-2.4,6.219L-2.397,6.1L-2.386,5.952L-2.368,5.806L-2.343,5.66L-2.31,5.517L-2.271,5.376L-2.225,5.237L-2.172,5.1L-2.113,4.966L-2.047,4.836L-1.975,4.708L-1.897,4.584L-1.812,4.463L-1.721,4.347L-1.624,4.234L-1.542,4.148L4.148,-1.542L4.234,-1.624L4.347,-1.721L4.463,-1.812L4.584,-1.897L4.708,-1.975L4.836,-2.047L4.966,-2.113L5.1,-2.172L5.237,-2.225L5.376,-2.271L5.517,-2.31L5.66,-2.343L5.806,-2.368L5.952,-2.386L6.1,-2.397L6.219,-2.4L17.781,-2.4L17.9,-2.397ZM6.219,0.001L6.189,0.003L6.16,0.007L6.131,0.012L6.102,0.018L6.074,0.026L6.046,0.035L6.019,0.046L5.992,0.058L5.966,0.071L5.94,0.085L5.916,0.101L5.892,0.118L5.868,0.136L5.846,0.155L5.824,0.176L0.176,5.824L0.155,5.846L0.136,5.868L0.118,5.892L0.101,5.916L0.085,5.94L0.071,5.966L0.058,5.992L0.046,6.019L0.035,6.046L0.026,6.074L0.018,6.102L0.012,6.131L0.007,6.16L0.003,6.189L0.001,6.219L0,6.249L0,17.751L0.001,17.781L0.003,17.811L0.007,17.84L0.012,17.869L0.018,17.898L0.026,17.926L0.035,17.954L0.046,17.981L0.058,18.008L0.071,18.034L0.085,18.06L0.101,18.084L0.118,18.108L0.136,18.132L0.155,18.154L0.176,18.176L5.824,23.824L5.846,23.845L5.868,23.864L5.892,23.882L5.916,23.899L5.94,23.915L5.966,23.929L5.992,23.942L6.019,23.954L6.046,23.965L6.074,23.974L6.102,23.982L6.131,23.988L6.16,23.993L6.189,23.997L6.219,23.999L6.249,24L17.752,23.999L17.781,23.998L17.811,23.996L17.84,23.992L17.869,23.987L17.898,23.98L17.926,23.973L17.954,23.963L17.981,23.953L18.008,23.941L18.034,23.928L18.06,23.913L18.084,23.898L18.108,23.881L18.132,23.863L18.154,23.843L18.176,23.823L23.824,18.176L23.845,18.154L23.864,18.132L23.882,18.108L23.899,18.084L23.915,18.06L23.929,18.034L23.942,18.008L23.954,17.981L23.965,17.954L23.974,17.926L23.982,17.898L23.988,17.869L23.993,17.84L23.997,17.811L23.999,17.781L24,17.751L24,6.249L23.999,6.219L23.997,6.189L23.993,6.16L23.988,6.131L23.982,6.102L23.974,6.074L23.965,6.046L23.954,6.019L23.942,5.992L23.929,5.966L23.915,5.94L23.899,5.916L23.882,5.892L23.864,5.868L23.845,5.846L23.824,5.824L18.176,0.176L18.154,0.155L18.132,0.136L18.108,0.118L18.084,0.101L18.06,0.085L18.034,0.071L18.008,0.058L17.981,0.046L17.954,0.035L17.926,0.026L17.898,0.018L17.869,0.012L17.84,0.007L17.811,0.003L17.781,0.001L17.751,0L6.249,0L6.219,0.001Z" style="fill:rgb(25,26,31);"/>
    </g>
    <g transform="matrix(0.24,0,0,0.24,-1.06581e-14,-5.32907e-15)">
        <path d="M50,38.215C50,38.215 58.296,29.919 61.742,26.473C62.132,26.082 62.662,25.863 63.215,25.863C63.767,25.863 64.297,26.082 64.688,26.473C66.952,28.737 71.263,33.048 73.527,35.312C73.918,35.703 74.137,36.233 74.137,36.785C74.137,37.338 73.918,37.868 73.527,38.258C70.081,41.704 61.785,50 61.785,50C61.785,50 70.081,58.296 73.527,61.742C73.918,62.132 74.137,62.662 74.137,63.215C74.137,63.767 73.918,64.297 73.527,64.688C71.263,66.952 66.952,71.263 64.688,73.527C64.297,73.918 63.767,74.137 63.215,74.137C62.662,74.137 62.132,73.918 61.742,73.527C58.296,70.081 50,61.785 50,61.785C50,61.785 41.704,70.081 38.258,73.527C37.868,73.918 37.338,74.137 36.785,74.137C36.233,74.137 35.703,73.918 35.312,73.527C33.048,71.263 28.737,66.952 26.473,64.688C26.082,64.297 25.863,63.767 25.863,63.215C25.863,62.662 26.082,62.132 26.473,61.742C29.919,58.296 38.215,50 38.215,50C38.215,50 29.919,41.704 26.473,38.258C26.082,37.868 25.863,37.338 25.863,36.785C25.863,36.233 26.082,35.703 26.473,35.312C28.737,33.048 33.048,28.737 35.312,26.473C35.703,26.082 36.233,25.863 36.785,25.863C37.338,25.863 37.868,26.082 38.258,26.473C41.704,29.919 50,38.215 50,38.215Z" style="fill:rgb(25,26,31);fill-rule:nonzero;"/>
    </g>
</svg>
