<?xml version="1.0" encoding="UTF-8" standalone="no"?>
<!DOCTYPE svg PUBLIC "-//W3C//DTD SVG 1.1//EN" "http://www.w3.org/Graphics/SVG/1.1/DTD/svg11.dtd">
<svg width="100%" height="100%" viewBox="0 0 24 24" version="1.1" xmlns="http://www.w3.org/2000/svg" xmlns:xlink="http://www.w3.org/1999/xlink" xml:space="preserve" xmlns:serif="http://www.serif.com/" style="fill-rule:evenodd;clip-rule:evenodd;stroke-linejoin:round;stroke-miterlimit:1.41421;">
    <g transform="matrix(0.833333,0,0,0.833333,2,2)">
        <circle cx="12" cy="12" r="12" style="fill:rgb(83,197,255);"/>
        <path d="M12.185,-2.399L12.37,-2.395L12.555,-2.39L12.739,-2.381L12.922,-2.371L13.105,-2.358L13.287,-2.343L13.469,-2.326L13.65,-2.306L13.83,-2.284L14.01,-2.26L14.189,-2.234L14.368,-2.206L14.546,-2.175L14.723,-2.142L14.899,-2.107L15.074,-2.07L15.249,-2.031L15.423,-1.99L15.596,-1.946L15.768,-1.901L15.94,-1.853L16.11,-1.803L16.28,-1.752L16.449,-1.698L16.617,-1.642L16.784,-1.585L16.95,-1.525L17.115,-1.463L17.279,-1.4L17.442,-1.334L17.605,-1.267L17.766,-1.197L17.926,-1.126L18.085,-1.053L18.243,-0.978L18.4,-0.901L18.556,-0.822L18.71,-0.742L18.864,-0.659L19.017,-0.575L19.168,-0.49L19.318,-0.402L19.467,-0.313L19.615,-0.221L19.762,-0.129L19.907,-0.034L20.051,0.062L20.194,0.16L20.336,0.259L20.476,0.361L20.616,0.463L20.753,0.568L20.89,0.674L21.025,0.782L21.159,0.891L21.292,1.001L21.423,1.114L21.553,1.228L21.681,1.343L21.808,1.46L21.934,1.578L22.058,1.698L22.181,1.819L22.302,1.942L22.422,2.066L22.54,2.192L22.657,2.319L22.772,2.447L22.886,2.577L22.999,2.708L23.109,2.841L23.218,2.975L23.326,3.11L23.432,3.247L23.537,3.384L23.639,3.524L23.741,3.664L23.84,3.806L23.938,3.949L24.034,4.093L24.129,4.238L24.221,4.385L24.313,4.533L24.402,4.682L24.49,4.832L24.575,4.983L24.659,5.136L24.742,5.29L24.822,5.444L24.901,5.6L24.978,5.757L25.053,5.915L25.126,6.074L25.197,6.234L25.267,6.395L25.334,6.558L25.4,6.721L25.463,6.885L25.525,7.05L25.585,7.216L25.642,7.383L25.698,7.551L25.752,7.72L25.803,7.89L25.853,8.06L25.901,8.232L25.946,8.404L25.99,8.577L26.031,8.751L26.07,8.926L26.107,9.101L26.142,9.277L26.175,9.454L26.206,9.632L26.234,9.811L26.26,9.99L26.284,10.17L26.306,10.35L26.326,10.531L26.343,10.713L26.358,10.895L26.371,11.078L26.381,11.261L26.39,11.445L26.395,11.63L26.399,11.815L26.4,12L26.399,12.185L26.395,12.37L26.39,12.555L26.381,12.739L26.371,12.922L26.358,13.105L26.343,13.287L26.326,13.469L26.306,13.65L26.284,13.83L26.26,14.01L26.234,14.189L26.206,14.368L26.175,14.546L26.142,14.723L26.107,14.899L26.07,15.074L26.031,15.249L25.99,15.423L25.946,15.596L25.901,15.768L25.853,15.94L25.803,16.11L25.752,16.28L25.698,16.449L25.642,16.617L25.585,16.784L25.525,16.95L25.463,17.115L25.4,17.279L25.334,17.442L25.267,17.605L25.197,17.766L25.126,17.926L25.053,18.085L24.978,18.243L24.901,18.4L24.822,18.556L24.742,18.71L24.659,18.864L24.575,19.017L24.49,19.168L24.402,19.318L24.313,19.467L24.221,19.615L24.129,19.762L24.034,19.907L23.938,20.051L23.84,20.194L23.741,20.336L23.639,20.476L23.537,20.616L23.432,20.753L23.326,20.89L23.218,21.025L23.109,21.159L22.999,21.292L22.886,21.423L22.772,21.553L22.657,21.681L22.54,21.808L22.422,21.934L22.302,22.058L22.181,22.181L22.058,22.302L21.934,22.422L21.808,22.54L21.681,22.657L21.553,22.772L21.423,22.886L21.292,22.999L21.159,23.109L21.025,23.218L20.89,23.326L20.753,23.432L20.616,23.537L20.476,23.639L20.336,23.741L20.194,23.84L20.051,23.938L19.907,24.034L19.762,24.129L19.615,24.221L19.467,24.313L19.318,24.402L19.168,24.49L19.017,24.575L18.864,24.659L18.71,24.742L18.556,24.822L18.4,24.901L18.243,24.978L18.085,25.053L17.926,25.126L17.766,25.197L17.605,25.267L17.442,25.334L17.279,25.4L17.115,25.463L16.95,25.525L16.784,25.585L16.617,25.642L16.449,25.698L16.28,25.752L16.11,25.803L15.94,25.853L15.768,25.901L15.596,25.946L15.423,25.99L15.249,26.031L15.074,26.07L14.899,26.107L14.723,26.142L14.546,26.175L14.368,26.206L14.189,26.234L14.01,26.26L13.83,26.284L13.65,26.306L13.469,26.326L13.287,26.343L13.105,26.358L12.922,26.371L12.739,26.381L12.555,26.39L12.37,26.395L12.185,26.399L12,26.4L11.815,26.399L11.63,26.395L11.445,26.39L11.261,26.381L11.078,26.371L10.895,26.358L10.713,26.343L10.531,26.326L10.35,26.306L10.17,26.284L9.99,26.26L9.811,26.234L9.632,26.206L9.454,26.175L9.277,26.142L9.101,26.107L8.926,26.07L8.751,26.031L8.577,25.99L8.404,25.946L8.232,25.901L8.06,25.853L7.89,25.803L7.72,25.752L7.551,25.698L7.383,25.642L7.216,25.585L7.05,25.525L6.885,25.463L6.721,25.4L6.558,25.334L6.395,25.267L6.234,25.197L6.074,25.126L5.915,25.053L5.757,24.978L5.6,24.901L5.444,24.822L5.29,24.742L5.136,24.659L4.983,24.575L4.832,24.49L4.682,24.402L4.533,24.313L4.385,24.221L4.238,24.129L4.093,24.034L3.949,23.938L3.806,23.84L3.664,23.741L3.524,23.639L3.384,23.537L3.247,23.432L3.11,23.326L2.975,23.218L2.841,23.109L2.708,22.999L2.577,22.886L2.447,22.772L2.319,22.657L2.192,22.54L2.066,22.422L1.942,22.302L1.819,22.181L1.698,22.058L1.578,21.934L1.46,21.808L1.343,21.681L1.228,21.553L1.114,21.423L1.001,21.292L0.891,21.159L0.782,21.025L0.674,20.89L0.568,20.753L0.463,20.616L0.361,20.476L0.259,20.336L0.16,20.194L0.062,20.051L-0.034,19.907L-0.129,19.762L-0.221,19.615L-0.313,19.467L-0.402,19.318L-0.49,19.168L-0.575,19.017L-0.659,18.864L-0.742,18.71L-0.822,18.556L-0.901,18.4L-0.978,18.243L-1.053,18.085L-1.126,17.926L-1.197,17.766L-1.267,17.605L-1.334,17.442L-1.4,17.279L-1.463,17.115L-1.525,16.95L-1.585,16.784L-1.642,16.617L-1.698,16.449L-1.752,16.28L-1.803,16.11L-1.853,15.94L-1.901,15.768L-1.946,15.596L-1.99,15.423L-2.031,15.249L-2.07,15.074L-2.107,14.899L-2.142,14.723L-2.175,14.546L-2.206,14.368L-2.234,14.189L-2.26,14.01L-2.284,13.83L-2.306,13.65L-2.326,13.469L-2.343,13.287L-2.358,13.105L-2.371,12.922L-2.381,12.739L-2.39,12.555L-2.395,12.37L-2.399,12.185L-2.4,12L-2.399,11.815L-2.395,11.63L-2.39,11.445L-2.381,11.261L-2.371,11.078L-2.358,10.895L-2.343,10.713L-2.326,10.531L-2.306,10.35L-2.284,10.17L-2.26,9.99L-2.234,9.811L-2.206,9.632L-2.175,9.454L-2.142,9.277L-2.107,9.101L-2.07,8.926L-2.031,8.751L-1.99,8.577L-1.946,8.404L-1.901,8.232L-1.853,8.06L-1.803,7.89L-1.752,7.72L-1.698,7.551L-1.642,7.383L-1.585,7.216L-1.525,7.05L-1.463,6.885L-1.4,6.721L-1.334,6.558L-1.267,6.395L-1.197,6.234L-1.126,6.074L-1.053,5.915L-0.978,5.757L-0.901,5.6L-0.822,5.444L-0.742,5.29L-0.659,5.136L-0.575,4.983L-0.49,4.832L-0.402,4.682L-0.313,4.533L-0.221,4.385L-0.129,4.238L-0.034,4.093L0.062,3.949L0.16,3.806L0.259,3.664L0.361,3.524L0.463,3.384L0.568,3.247L0.674,3.11L0.782,2.975L0.891,2.841L1.001,2.708L1.114,2.577L1.228,2.447L1.343,2.319L1.46,2.192L1.578,2.066L1.698,1.942L1.819,1.819L1.942,1.698L2.066,1.578L2.192,1.46L2.319,1.343L2.447,1.228L2.577,1.114L2.708,1.001L2.841,0.891L2.975,0.782L3.11,0.674L3.247,0.568L3.384,0.463L3.524,0.361L3.664,0.259L3.806,0.16L3.949,0.062L4.093,-0.034L4.238,-0.129L4.385,-0.221L4.533,-0.313L4.682,-0.402L4.832,-0.49L4.983,-0.575L5.136,-0.659L5.29,-0.742L5.444,-0.822L5.6,-0.901L5.757,-0.978L5.915,-1.053L6.074,-1.126L6.234,-1.197L6.395,-1.267L6.558,-1.334L6.721,-1.4L6.885,-1.463L7.05,-1.525L7.216,-1.585L7.383,-1.642L7.551,-1.698L7.72,-1.752L7.89,-1.803L8.06,-1.853L8.232,-1.901L8.404,-1.946L8.577,-1.99L8.751,-2.031L8.926,-2.07L9.101,-2.107L9.277,-2.142L9.454,-2.175L9.632,-2.206L9.811,-2.234L9.99,-2.26L10.17,-2.284L10.35,-2.306L10.531,-2.326L10.713,-2.343L10.895,-2.358L11.078,-2.371L11.261,-2.381L11.445,-2.39L11.63,-2.395L11.815,-2.399L12,-2.4L12.185,-2.399ZM11.845,0.001L11.69,0.004L11.536,0.009L11.383,0.016L11.23,0.024L11.077,0.035L10.925,0.048L10.774,0.062L10.623,0.078L10.473,0.096L10.323,0.117L10.174,0.138L10.025,0.162L9.877,0.188L9.73,0.215L9.583,0.244L9.437,0.275L9.291,0.308L9.147,0.342L9.002,0.378L8.859,0.416L8.716,0.456L8.574,0.497L8.433,0.54L8.293,0.585L8.153,0.631L8.014,0.679L7.876,0.729L7.738,0.78L7.602,0.833L7.466,0.887L7.331,0.944L7.197,1.001L7.063,1.061L6.931,1.122L6.799,1.184L6.669,1.248L6.539,1.314L6.41,1.381L6.282,1.449L6.155,1.519L6.029,1.591L5.904,1.664L5.78,1.738L5.656,1.814L5.534,1.892L5.413,1.97L5.293,2.051L5.173,2.132L5.055,2.215L4.938,2.3L4.822,2.385L4.707,2.472L4.593,2.561L4.48,2.651L4.369,2.742L4.258,2.834L4.149,2.928L4.04,3.023L3.933,3.119L3.827,3.216L3.722,3.315L3.619,3.415L3.516,3.516L3.415,3.619L3.315,3.722L3.216,3.827L3.119,3.933L3.023,4.04L2.928,4.149L2.834,4.258L2.742,4.369L2.651,4.48L2.561,4.593L2.472,4.707L2.385,4.822L2.3,4.938L2.215,5.055L2.132,5.173L2.051,5.293L1.97,5.413L1.892,5.534L1.814,5.656L1.738,5.78L1.664,5.904L1.591,6.029L1.519,6.155L1.449,6.282L1.381,6.41L1.314,6.539L1.248,6.669L1.184,6.799L1.122,6.931L1.061,7.063L1.001,7.197L0.944,7.331L0.887,7.466L0.833,7.602L0.78,7.738L0.729,7.876L0.679,8.014L0.631,8.153L0.585,8.293L0.54,8.433L0.497,8.574L0.456,8.716L0.416,8.859L0.378,9.002L0.342,9.147L0.308,9.291L0.275,9.437L0.244,9.583L0.215,9.73L0.188,9.877L0.162,10.025L0.138,10.174L0.117,10.323L0.096,10.473L0.078,10.623L0.062,10.774L0.048,10.925L0.035,11.077L0.024,11.23L0.016,11.383L0.009,11.536L0.004,11.69L0.001,11.845L0,12L0.001,12.155L0.004,12.31L0.009,12.464L0.016,12.617L0.024,12.77L0.035,12.923L0.048,13.075L0.062,13.226L0.078,13.377L0.096,13.527L0.117,13.677L0.138,13.826L0.162,13.975L0.188,14.123L0.215,14.27L0.244,14.417L0.275,14.563L0.308,14.709L0.342,14.853L0.378,14.998L0.416,15.141L0.456,15.284L0.497,15.426L0.54,15.567L0.585,15.707L0.631,15.847L0.679,15.986L0.729,16.124L0.78,16.262L0.833,16.398L0.887,16.534L0.944,16.669L1.001,16.803L1.061,16.937L1.122,17.069L1.184,17.201L1.248,17.331L1.314,17.461L1.381,17.59L1.449,17.718L1.519,17.845L1.591,17.971L1.664,18.096L1.738,18.22L1.814,18.344L1.892,18.466L1.97,18.587L2.051,18.707L2.132,18.827L2.215,18.945L2.3,19.062L2.385,19.178L2.472,19.293L2.561,19.407L2.651,19.52L2.742,19.631L2.834,19.742L2.928,19.851L3.023,19.96L3.119,20.067L3.216,20.173L3.315,20.278L3.415,20.381L3.516,20.484L3.619,20.585L3.722,20.685L3.827,20.784L3.933,20.881L4.04,20.977L4.149,21.072L4.258,21.166L4.369,21.258L4.48,21.349L4.593,21.439L4.707,21.528L4.822,21.615L4.938,21.7L5.055,21.785L5.173,21.868L5.293,21.949L5.413,22.03L5.534,22.108L5.656,22.186L5.78,22.262L5.904,22.336L6.029,22.409L6.155,22.481L6.282,22.551L6.41,22.619L6.539,22.686L6.669,22.752L6.799,22.816L6.931,22.878L7.063,22.939L7.197,22.999L7.331,23.056L7.466,23.113L7.602,23.167L7.738,23.22L7.876,23.271L8.014,23.321L8.153,23.369L8.293,23.415L8.433,23.46L8.574,23.503L8.716,23.544L8.859,23.584L9.002,23.622L9.147,23.658L9.291,23.692L9.437,23.725L9.583,23.756L9.73,23.785L9.877,23.812L10.025,23.838L10.174,23.862L10.323,23.883L10.473,23.904L10.623,23.922L10.774,23.938L10.925,23.952L11.077,23.965L11.23,23.976L11.383,23.984L11.536,23.991L11.69,23.996L11.845,23.999L12,24L12.155,23.999L12.31,23.996L12.464,23.991L12.617,23.984L12.77,23.976L12.923,23.965L13.075,23.952L13.226,23.938L13.377,23.922L13.527,23.904L13.677,23.883L13.826,23.862L13.975,23.838L14.123,23.812L14.27,23.785L14.417,23.756L14.563,23.725L14.709,23.692L14.853,23.658L14.998,23.622L15.141,23.584L15.284,23.544L15.426,23.503L15.567,23.46L15.707,23.415L15.847,23.369L15.986,23.321L16.124,23.271L16.262,23.22L16.398,23.167L16.534,23.113L16.669,23.056L16.803,22.999L16.937,22.939L17.069,22.878L17.201,22.816L17.331,22.752L17.461,22.686L17.59,22.619L17.718,22.551L17.845,22.481L17.971,22.409L18.096,22.336L18.22,22.262L18.344,22.186L18.466,22.108L18.587,22.03L18.707,21.949L18.827,21.868L18.945,21.785L19.062,21.7L19.178,21.615L19.293,21.528L19.407,21.439L19.52,21.349L19.631,21.258L19.742,21.166L19.851,21.072L19.96,20.977L20.067,20.881L20.173,20.784L20.278,20.685L20.381,20.585L20.484,20.484L20.585,20.381L20.685,20.278L20.784,20.173L20.881,20.067L20.977,19.96L21.072,19.851L21.166,19.742L21.258,19.631L21.349,19.52L21.439,19.407L21.528,19.293L21.615,19.178L21.7,19.062L21.785,18.945L21.868,18.827L21.949,18.707L22.03,18.587L22.108,18.466L22.186,18.344L22.262,18.22L22.336,18.096L22.409,17.971L22.481,17.845L22.551,17.718L22.619,17.59L22.686,17.461L22.752,17.331L22.816,17.201L22.878,17.069L22.939,16.937L22.999,16.803L23.056,16.669L23.113,16.534L23.167,16.398L23.22,16.262L23.271,16.124L23.321,15.986L23.369,15.847L23.415,15.707L23.46,15.567L23.503,15.426L23.544,15.284L23.584,15.141L23.622,14.998L23.658,14.853L23.692,14.709L23.725,14.563L23.756,14.417L23.785,14.27L23.812,14.123L23.838,13.975L23.862,13.826L23.883,13.677L23.904,13.527L23.922,13.377L23.938,13.226L23.952,13.075L23.965,12.923L23.976,12.77L23.984,12.617L23.991,12.464L23.996,12.31L23.999,12.155L24,12L23.999,11.845L23.996,11.69L23.991,11.536L23.984,11.383L23.976,11.23L23.965,11.077L23.952,10.925L23.938,10.774L23.922,10.623L23.904,10.473L23.883,10.323L23.862,10.174L23.838,10.025L23.812,9.877L23.785,9.73L23.756,9.583L23.725,9.437L23.692,9.291L23.658,9.147L23.622,9.002L23.584,8.859L23.544,8.716L23.503,8.574L23.46,8.433L23.415,8.293L23.369,8.153L23.321,8.014L23.271,7.876L23.22,7.738L23.167,7.602L23.113,7.466L23.056,7.331L22.999,7.197L22.939,7.063L22.878,6.931L22.816,6.799L22.752,6.669L22.686,6.539L22.619,6.41L22.551,6.282L22.481,6.155L22.409,6.029L22.336,5.904L22.262,5.78L22.186,5.656L22.108,5.534L22.03,5.413L21.949,5.293L21.868,5.173L21.785,5.055L21.7,4.938L21.615,4.822L21.528,4.707L21.439,4.593L21.349,4.48L21.258,4.369L21.166,4.258L21.072,4.149L20.977,4.04L20.881,3.933L20.784,3.827L20.685,3.722L20.585,3.619L20.484,3.516L20.381,3.415L20.278,3.315L20.173,3.216L20.067,3.119L19.96,3.023L19.851,2.928L19.742,2.834L19.631,2.742L19.52,2.651L19.407,2.561L19.293,2.472L19.178,2.385L19.062,2.3L18.945,2.215L18.827,2.132L18.707,2.051L18.587,1.97L18.466,1.892L18.344,1.814L18.22,1.738L18.096,1.664L17.971,1.591L17.845,1.519L17.718,1.449L17.59,1.381L17.461,1.314L17.331,1.248L17.201,1.184L17.069,1.122L16.937,1.061L16.803,1.001L16.669,0.944L16.534,0.887L16.398,0.833L16.262,0.78L16.124,0.729L15.986,0.679L15.847,0.631L15.707,0.585L15.567,0.54L15.426,0.497L15.284,0.456L15.141,0.416L14.998,0.378L14.853,0.342L14.709,0.308L14.563,0.275L14.417,0.244L14.27,0.215L14.123,0.188L13.975,0.162L13.826,0.138L13.677,0.117L13.527,0.096L13.377,0.078L13.226,0.062L13.075,0.048L12.923,0.035L12.77,0.024L12.617,0.016L12.464,0.009L12.31,0.004L12.155,0.001L12,0L11.845,0.001Z" style="fill:rgb(25,26,31);"/>
    </g>
    <g transform="matrix(-1,-1.22465e-16,1.22465e-16,-1,24,24)">
        <path d="M13.5,15C13.633,15 13.76,15.053 13.854,15.146C13.947,15.24 14,15.367 14,15.5C14,16.055 14,16.945 14,17.5C14,17.633 13.947,17.76 13.854,17.854C13.76,17.947 13.633,18 13.5,18C12.731,18 11.269,18 10.5,18C10.367,18 10.24,17.947 10.146,17.854C10.053,17.76 10,17.633 10,17.5C10,16.945 10,16.055 10,15.5C10,15.367 10.053,15.24 10.146,15.146C10.24,15.053 10.367,15 10.5,15C11.269,15 12.731,15 13.5,15ZM13.5,6C13.633,6 13.76,6.053 13.854,6.146C13.947,6.24 14,6.367 14,6.5C14,7.766 14,11 14,11C14,11 14.564,11 15,11C15.276,11 15.5,11.224 15.5,11.5C15.5,12.055 15.5,12.945 15.5,13.5C15.5,13.776 15.276,14 15,14C13.954,14 11.546,14 10.5,14C10.367,14 10.24,13.947 10.146,13.854C10.053,13.76 10,13.633 10,13.5C10,12.234 10,9 10,9C10,9 9.436,9 9,9C8.724,9 8.5,8.776 8.5,8.5C8.5,7.945 8.5,7.055 8.5,6.5C8.5,6.224 8.724,6 9,6C10.046,6 12.454,6 13.5,6Z" style="fill:rgb(25,26,31);"/>
    </g>
</svg>
