<?xml version="1.0" encoding="UTF-8" standalone="no"?>
<!DOCTYPE svg PUBLIC "-//W3C//DTD SVG 1.1//EN" "http://www.w3.org/Graphics/SVG/1.1/DTD/svg11.dtd">
<svg width="100%" height="100%" viewBox="0 0 24 24" version="1.1" xmlns="http://www.w3.org/2000/svg" xmlns:xlink="http://www.w3.org/1999/xlink" xml:space="preserve" xmlns:serif="http://www.serif.com/" style="fill-rule:evenodd;clip-rule:evenodd;stroke-linejoin:round;stroke-miterlimit:2;">
    <g transform="matrix(2.93657,0,0,1.16667,-24.7388,3.10167e-10)">
        <path d="M13.022,1.286C13.022,0.576 12.793,0 12.511,0C12.229,0 12,0.576 12,1.286C12,3.592 12,8.408 12,10.714C12,11.424 12.229,12 12.511,12C12.793,12 13.022,11.424 13.022,10.714C13.022,8.408 13.022,3.592 13.022,1.286Z"/>
    </g>
    <path d="M17.598,4.954C17.001,4.508 16.833,3.686 17.205,3.04C17.19,3.01 17.2,2.994 17.209,2.978C17.422,2.608 17.783,2.347 18.201,2.259C18.619,2.172 19.054,2.266 19.398,2.52C22.192,4.738 24,8.16 24,12C24,18.623 18.623,24 12,24C5.377,24 0,18.623 0,12C0,8.16 1.808,4.738 4.618,2.541C4.956,2.293 5.383,2.2 5.794,2.285C6.204,2.371 6.559,2.628 6.768,2.991C6.8,2.994 6.81,3.01 6.819,3.026C7.198,3.684 7.026,4.521 6.419,4.976C4.33,6.604 3,9.148 3,12C3,16.967 7.033,21 12,21C16.967,21 21,16.967 21,12C21,9.148 19.67,6.604 17.598,4.954Z"/>
</svg>
