<?xml version="1.0" encoding="UTF-8" standalone="no"?>
<!DOCTYPE svg PUBLIC "-//W3C//DTD SVG 1.1//EN" "http://www.w3.org/Graphics/SVG/1.1/DTD/svg11.dtd">
<svg width="100%" height="100%" viewBox="0 0 24 24" version="1.1" xmlns="http://www.w3.org/2000/svg" xmlns:xlink="http://www.w3.org/1999/xlink" xml:space="preserve" xmlns:serif="http://www.serif.com/" style="fill-rule:evenodd;clip-rule:evenodd;stroke-linecap:round;stroke-linejoin:round;stroke-miterlimit:1.5;">
    <g>
        <path d="M16.93,10.92C16.424,8.239 14.067,6.209 11.239,6.209C8.043,6.209 5.448,8.804 5.448,12C5.448,15.196 8.043,17.791 11.239,17.791C12.238,17.791 13.178,17.538 13.999,17.092C14.193,16.986 14.434,17.021 14.591,17.177L16.354,18.94C16.46,19.047 16.513,19.195 16.498,19.345C16.482,19.495 16.4,19.63 16.274,19.712C14.826,20.66 13.097,21.211 11.239,21.211C6.156,21.211 2.029,17.083 2.029,12C2.029,6.917 6.156,2.789 11.239,2.789C15.958,2.789 19.852,6.345 20.387,10.92L21.861,10.92C22.064,10.92 22.246,11.042 22.323,11.229C22.401,11.416 22.358,11.631 22.215,11.774L18.965,15.024C18.77,15.219 18.453,15.219 18.258,15.024L15.008,11.774C14.865,11.631 14.822,11.416 14.9,11.229C14.977,11.042 15.159,10.92 15.361,10.92L16.93,10.92Z"/>
    </g>
</svg>
