<?xml version="1.0" encoding="UTF-8" standalone="no"?>
<!DOCTYPE svg PUBLIC "-//W3C//DTD SVG 1.1//EN" "http://www.w3.org/Graphics/SVG/1.1/DTD/svg11.dtd">
<svg width="100%" height="100%" viewBox="0 0 24 24" version="1.1" xmlns="http://www.w3.org/2000/svg" xmlns:xlink="http://www.w3.org/1999/xlink" xml:space="preserve" xmlns:serif="http://www.serif.com/" style="fill-rule:evenodd;clip-rule:evenodd;stroke-linejoin:round;stroke-miterlimit:2;">
    <path d="M18.614,18L20,18L20,21L4,21L4,18L5.386,18C4.512,16.718 4,15.168 4,13.5C4,9.775 6.551,6.642 10,5.752L10,5.524L4,5.524L4,3L20,3L20,5.524L14,5.524L14,5.752C17.449,6.642 20,9.775 20,13.5C20,15.168 19.488,16.718 18.614,18ZM12,8.5C14.76,8.5 17,10.74 17,13.5C17,16.26 14.76,18.5 12,18.5C9.24,18.5 7,16.26 7,13.5C7,10.74 9.24,8.5 12,8.5ZM11.941,12.001L13.307,9.636L14.693,10.436L13.327,12.801C13.437,13.01 13.5,13.248 13.5,13.5C13.5,14.328 12.828,15 12,15C11.172,15 10.5,14.328 10.5,13.5C10.5,12.692 11.141,12.032 11.941,12.001Z"/>
</svg>
