<?xml version="1.0" encoding="UTF-8" standalone="no"?>
<!DOCTYPE svg PUBLIC "-//W3C//DTD SVG 1.1//EN" "http://www.w3.org/Graphics/SVG/1.1/DTD/svg11.dtd">
<svg width="100%" height="100%" viewBox="0 0 24 24" version="1.1" xmlns="http://www.w3.org/2000/svg" xmlns:xlink="http://www.w3.org/1999/xlink" xml:space="preserve" xmlns:serif="http://www.serif.com/" style="fill-rule:evenodd;clip-rule:evenodd;stroke-linejoin:round;stroke-miterlimit:1.41421;">
    <g transform="matrix(0.255505,0,0,0.255505,-0.888291,-0.860706)">
        <path d="M42.038,17.969C42.397,17.407 43.018,17.067 43.686,17.067C46.546,17.067 54.339,17.067 57.199,17.067C57.866,17.067 58.488,17.407 58.847,17.969C62.691,23.975 84.556,58.138 88.849,64.847C89.289,65.534 89.256,66.423 88.766,67.076C86.535,70.051 80.36,78.284 78.426,80.862C78.057,81.355 77.477,81.645 76.861,81.645C70.13,81.645 30.755,81.645 24.024,81.645C23.408,81.645 22.828,81.355 22.459,80.862C20.525,78.284 14.35,70.051 12.119,67.076C11.629,66.423 11.596,65.534 12.036,64.847C16.329,58.138 38.194,23.975 42.038,17.969Z" style="fill:rgb(252,152,33);"/>
        <path d="M57.821,9.255L58.437,9.314L59.045,9.411L59.643,9.545L60.228,9.716L60.801,9.922L61.358,10.163L61.899,10.437L62.421,10.745L62.924,11.084L63.406,11.455L63.866,11.857L64.301,12.288L64.711,12.748L65.092,13.235L65.373,13.645L95.483,60.691L95.642,60.95L95.864,61.345L96.16,61.954L96.435,62.649L96.655,63.358L96.82,64.078L96.929,64.804L96.984,65.534L96.984,66.264L96.93,66.993L96.821,67.717L96.658,68.433L96.44,69.138L96.169,69.829L95.843,70.502L95.502,71.087L95.251,71.465L95.074,71.712L84.619,85.651L84.333,86.01L83.951,86.436L83.546,86.837L83.121,87.212L82.676,87.561L82.213,87.883L81.733,88.177L81.238,88.443L80.728,88.679L80.205,88.887L79.67,89.064L79.124,89.211L78.569,89.326L78.005,89.409L77.435,89.459L76.976,89.473L23.909,89.473L23.45,89.459L22.88,89.409L22.316,89.326L21.761,89.211L21.215,89.064L20.68,88.887L20.157,88.679L19.647,88.443L19.152,88.177L18.672,87.883L18.209,87.561L17.764,87.212L17.339,86.837L16.934,86.436L16.552,86.01L16.266,85.651L5.811,71.712L5.634,71.465L5.383,71.087L5.042,70.502L4.716,69.829L4.444,69.138L4.227,68.433L4.064,67.717L3.955,66.993L3.901,66.265L3.901,65.534L3.956,64.804L4.065,64.078L4.23,63.358L4.45,62.649L4.725,61.954L5.021,61.345L5.243,60.95L5.402,60.691L35.512,13.645L35.793,13.235L36.174,12.748L36.584,12.288L37.019,11.857L37.479,11.455L37.961,11.084L38.464,10.745L38.986,10.437L39.527,10.163L40.084,9.922L40.656,9.716L41.242,9.545L41.84,9.411L42.448,9.314L43.064,9.255L43.561,9.239L57.324,9.239L57.821,9.255ZM43.686,17.067L43.561,17.071L43.438,17.083L43.317,17.102L43.197,17.129L43.08,17.163L42.966,17.204L42.854,17.252L42.746,17.307L42.642,17.369L42.541,17.437L42.445,17.511L42.353,17.591L42.266,17.677L42.184,17.769L42.108,17.866L42.038,17.969L12.036,64.847L11.996,64.912L11.959,64.978L11.893,65.113L11.838,65.252L11.794,65.393L11.761,65.537L11.74,65.682L11.729,65.828L11.729,65.974L11.739,66.12L11.761,66.265L11.794,66.408L11.837,66.549L11.891,66.686L11.956,66.821L12.032,66.951L12.074,67.014L12.119,67.076L22.459,80.862L22.53,80.952L22.607,81.037L22.688,81.118L22.773,81.193L22.861,81.262L22.954,81.327L23.05,81.385L23.149,81.439L23.251,81.486L23.356,81.527L23.463,81.563L23.572,81.592L23.683,81.615L23.795,81.632L23.909,81.642L24.024,81.645L76.861,81.645L76.976,81.642L77.09,81.632L77.202,81.615L77.313,81.592L77.422,81.563L77.529,81.527L77.634,81.486L77.736,81.439L77.835,81.385L77.931,81.327L78.023,81.262L78.112,81.193L78.197,81.118L78.278,81.037L78.355,80.952L78.426,80.862L88.766,67.076L88.811,67.014L88.853,66.951L88.929,66.821L88.994,66.686L89.048,66.549L89.091,66.408L89.124,66.265L89.145,66.12L89.156,65.974L89.156,65.828L89.145,65.682L89.123,65.537L89.091,65.393L89.047,65.252L88.992,65.113L88.926,64.978L88.889,64.912L88.849,64.847L58.847,17.969L58.777,17.866L58.701,17.769L58.619,17.677L58.532,17.591L58.44,17.511L58.344,17.437L58.243,17.369L58.139,17.307L58.031,17.252L57.919,17.204L57.805,17.163L57.688,17.129L57.568,17.102L57.447,17.083L57.324,17.071L57.199,17.067L43.686,17.067Z" style="fill:rgb(25,26,31);"/>
    </g>
    <g transform="matrix(1,0,0,1,0,0.5)">
        <path d="M13.5,15C13.633,15 13.76,15.053 13.854,15.146C13.947,15.24 14,15.367 14,15.5C14,16.055 14,16.945 14,17.5C14,17.633 13.947,17.76 13.854,17.854C13.76,17.947 13.633,18 13.5,18C12.731,18 11.269,18 10.5,18C10.367,18 10.24,17.947 10.146,17.854C10.053,17.76 10,17.633 10,17.5C10,16.945 10,16.055 10,15.5C10,15.367 10.053,15.24 10.146,15.146C10.24,15.053 10.367,15 10.5,15C11.269,15 12.731,15 13.5,15ZM13.5,6C13.633,6 13.76,6.053 13.854,6.146C13.947,6.24 14,6.367 14,6.5C14,7.864 14,11.636 14,13C14,13.133 13.947,13.26 13.854,13.354C13.76,13.447 13.633,13.5 13.5,13.5C12.731,13.5 11.269,13.5 10.5,13.5C10.367,13.5 10.24,13.447 10.146,13.354C10.053,13.26 10,13.133 10,13C10,11.636 10,7.864 10,6.5C10,6.367 10.053,6.24 10.146,6.146C10.24,6.053 10.367,6 10.5,6C11.269,6 12.731,6 13.5,6Z" style="fill:rgb(25,26,31);"/>
    </g>
</svg>
